<svg xmlns="http://www.w3.org/2000/svg" viewBox="0 0 600 320" width="600" height="320">
  <g fill="none" stroke="#000" stroke-width="2" stroke-linecap="square" stroke-linejoin="miter">
  <path d="M473,316 L473,250 L459,236 L459,152 L445,138 L445,68 L403,26 L403,4 L403,4 L403,4 L403,4"/>
  <circle cx="403" cy="4" r="5"/>
  <path d="M25,316 L25,292 L11,278 L11,194 L39,166 L39,96 L4,54 L4,12 L4,4 L4,4 L4,4 L4,4 L4,4 L4,4"/>
  <circle cx="4" cy="4" r="4"/>
  <path d="M40,316 L40,236 L40,166 L68,138 L68,110"/>
  <circle cx="68" cy="110" r="5"/>
  <path d="M10,316 L10,278 L10,250 L38,222 L38,194 L4,152 L4,96 L24,68"/>
  <circle cx="24" cy="68" r="3"/>
  <path d="M429,316 L429,278 L415,264 L415,236 L429,222 L429,124 L471,82"/>
  <circle cx="471" cy="82" r="3"/>
  <path d="M144,316 L144,222 L172,194 L172,152 L186,138 L186,96 L172,82 L172,40 L186,26 L186,4 L214,4 L214,4 L172,4"/>
  <circle cx="172" cy="4" r="5"/>
  <path d="M258,316 L258,236 L272,222 L272,138 L244,110 L244,68"/>
  <circle cx="244" cy="68" r="4"/>
  <path d="M243,316 L243,278 L243,236 L243,152 L271,124 L271,40 L257,26 L257,4 L271,4 L271,4 L271,4 L299,4"/>
  <circle cx="299" cy="4" r="5"/>
  <path d="M189,316 L189,278 L161,250 L161,208 L161,166"/>
  <circle cx="161" cy="166" r="3"/>
  <path d="M285,316 L285,250 L271,236 L271,180 L257,166 L257,110 L285,82 L285,4 L285,4 L243,4 L243,4"/>
  <circle cx="243" cy="4" r="4"/>
  <path d="M376,316 L376,292 L348,264 L348,236 L348,180 L334,166 L334,96 L292,54 L292,4"/>
  <circle cx="292" cy="4" r="4"/>
  <path d="M370,316 L370,222 L342,194 L342,166 L342,82 L370,54"/>
  <circle cx="370" cy="54" r="5"/>
  <path d="M22,316 L22,292 L4,264 L4,194 L4,124 L4,26 L22,4 L22,4 L4,4 L4,4 L4,4 L4,4 L8,4"/>
  <circle cx="8" cy="4" r="3"/>
  <path d="M386,316 L386,278 L386,236 L428,194 L428,124 L400,96 L400,26 L400,4"/>
  <circle cx="400" cy="4" r="3"/>
  <path d="M229,316 L229,278 L243,264 L243,222 L257,208 L257,110 L271,96 L271,68 L285,54 L285,4 L327,4 L327,4"/>
  <circle cx="327" cy="4" r="5"/>
  <path d="M473,316 L473,292 L473,236 L473,208 L473,152 L515,110 L515,26 L487,4"/>
  <circle cx="487" cy="4" r="4"/>
  </g>
</svg>
